HIERARCHY
ROOT Hips
{
	OFFSET -0.001795 -0.223333 0.028219
	CHANNELS 6 Xposition Yposition Zposition Zrotation Yrotation Xrotation 
	JOINT LeftUpLeg
	{
		OFFSET 0.069520 -0.091406 -0.006815
		CHANNELS 3 Zrotation Yrotation Xrotation
		JOINT LeftLeg
		{
			OFFSET 0.034277 -0.375199 -0.004496
			CHANNELS 3 Zrotation Yrotation Xrotation
			JOINT LeftFoot
			{
				OFFSET -0.013596 -0.397961 -0.043693
				CHANNELS 3 Zrotation Yrotation Xrotation
				JOINT LeftToe
				{
					OFFSET 0.026358 -0.055791 0.119288
					CHANNELS 3 Zrotation Yrotation Xrotation
					End Site
					{
						OFFSET 0.000000 0.000000 0.000000
					}
				}
			}
		}
	}
	JOINT RightUpLeg
	{
		OFFSET -0.067670 -0.090522 -0.004320
		CHANNELS 3 Zrotation Yrotation Xrotation
		JOINT RightLeg
		{
			OFFSET -0.038290 -0.382569 -0.008850
			CHANNELS 3 Zrotation Yrotation Xrotation
			JOINT RightFoot
			{
				OFFSET 0.015774 -0.398415 -0.042312
				CHANNELS 3 Zrotation Yrotation Xrotation
				JOINT RightToe
				{
					OFFSET -0.025372 -0.048144 0.123348
					CHANNELS 3 Zrotation Yrotation Xrotation
					End Site
					{
						OFFSET 0.000000 0.000000 0.000000
					}
				}
			}
		}
	}
	JOINT Spine
	{
		OFFSET -0.002533 0.108963 -0.026696
		CHANNELS 3 Zrotation Yrotation Xrotation
		JOINT Spine1
		{
			OFFSET 0.005487 0.135180 0.001092
			CHANNELS 3 Zrotation Yrotation Xrotation
			JOINT Spine2
			{
				OFFSET 0.001457 0.052922 0.025425
				CHANNELS 3 Zrotation Yrotation Xrotation
				JOINT Neck
				{
					OFFSET -0.002778 0.213870 -0.042857
					CHANNELS 3 Zrotation Yrotation Xrotation
					JOINT Head
					{
						OFFSET 0.005152 0.064970 0.051349
						CHANNELS 3 Zrotation Yrotation Xrotation
						End Site
						{
							OFFSET 0.000000 0.000000 0.000000
						}
					}
				}
				JOINT LeftShoulder
				{
					OFFSET 0.078845 0.121749 -0.034090
					CHANNELS 3 Zrotation Yrotation Xrotation
					JOINT LeftArm
					{
						OFFSET 0.090977 0.030469 -0.008868
						CHANNELS 3 Zrotation Yrotation Xrotation
						JOINT LeftForeArm
						{
							OFFSET 0.259612 -0.012772 -0.027456
							CHANNELS 3 Zrotation Yrotation Xrotation
							JOINT LeftHand
							{
								OFFSET 0.249234 0.008986 -0.001171
								CHANNELS 3 Zrotation Yrotation Xrotation
								End Site
								{
									OFFSET 0.000000 0.000000 0.000000
								}
							}
						}
					}
				}
				JOINT RightShoulder
				{
					OFFSET -0.081759 0.118833 -0.038615
					CHANNELS 3 Zrotation Yrotation Xrotation
					JOINT RightArm
					{
						OFFSET -0.096012 0.032551 -0.009143
						CHANNELS 3 Zrotation Yrotation Xrotation
						JOINT RightForeArm
						{
							OFFSET -0.253742 -0.013329 -0.021401
							CHANNELS 3 Zrotation Yrotation Xrotation
							JOINT RightHand
							{
								OFFSET -0.255298 0.007772 -0.005559
								CHANNELS 3 Zrotation Yrotation Xrotation
								End Site
								{
									OFFSET 0.000000 0.000000 0.000000
								}
							}
						}
					}
				}
			}
		}
	}
}
MOTION
Frames: 16
Frame Time: 0.050000
0.000000 0.938338 0.000000 -1.497407 -1.831798 1.735762 4.863107 -0.116283 -1.166236 -1.754784 0.139151 3.448268 1.464371 3.625454 1.374364 0.000000 0.000000 0.000000 -2.856305 0.281076 -2.584586 0.934261 0.117002 6.356005 -1.082773 -4.375844 3.662142 0.000000 0.000000 0.000000 -1.312133 -0.132179 5.116765 4.083919 -0.359169 -24.724747 -0.135841 1.480983 30.377801 0.283282 1.751889 -31.467426 0.000000 0.000000 0.000000 -25.673612 2.986303 -3.426205 -53.288558 -5.233000 -6.720038 -4.572976 -25.648070 2.487861 0.000000 0.000000 0.000000 17.518337 2.535184 0.586220 61.307806 6.380708 -5.622026 -2.142793 26.020604 0.918902 0.000000 0.000000 0.000000 
0.000047 0.938306 0.000563 -1.597352 -2.450974 2.118652 5.042309 -0.077612 -0.393547 -1.810758 0.181902 1.487938 1.469709 3.592262 1.268311 0.000000 0.000000 0.000000 -2.883105 0.313761 -2.945022 0.987906 0.099041 5.938071 -1.023056 -4.316578 3.780000 0.000000 0.000000 0.000000 -1.395227 -0.112898 4.682526 4.204172 -0.371556 -25.071758 -0.091707 1.851853 31.017134 -0.873085 2.389523 -32.453567 0.000000 0.000000 0.000000 -26.598563 4.049230 -4.184458 -53.233367 -4.817828 -6.961314 -3.811657 -26.147625 2.408156 0.000000 0.000000 0.000000 17.294204 2.699534 0.695428 62.027592 5.831463 -6.021827 -2.949917 27.702026 0.850484 0.000000 0.000000 0.000000 
0.000184 0.937633 0.000900 -1.213012 -1.596202 2.231179 4.588677 -0.116670 -1.028102 -1.674066 0.144669 2.378210 1.224150 2.843929 0.600783 0.000000 0.000000 0.000000 -3.149470 0.326690 -3.144408 0.992333 0.111185 6.510668 -1.515082 -5.259184 3.406385 0.000000 0.000000 0.000000 -1.000974 -0.129804 4.508566 3.033283 -0.103757 -24.829825 -0.182410 0.507610 31.057917 -1.490476 2.598349 -33.680014 0.000000 0.000000 0.000000 -26.056377 3.909307 -3.740578 -53.177312 -5.552644 -6.707528 -3.912246 -25.588124 2.403597 0.000000 0.000000 0.000000 17.579658 3.126972 0.715192 61.601866 5.778972 -6.020413 -3.349026 26.527404 0.658526 0.000000 0.000000 0.000000 
0.000207 0.937258 0.001028 -1.001461 -1.413506 2.378980 4.501109 -0.124007 -1.114155 -1.600207 0.138656 2.119186 0.773850 2.020375 0.901440 0.000000 0.000000 0.000000 -3.457588 0.335519 -3.249870 0.900768 0.117760 6.321955 -1.569995 -5.486308 3.691857 0.000000 0.000000 0.000000 -1.532456 -0.099682 4.518102 3.475227 -0.160541 -25.537264 -0.382296 0.433510 31.638735 -2.451642 3.091173 -34.049244 0.000000 0.000000 0.000000 -26.881029 4.298633 -4.096856 -52.462731 -5.115544 -6.864869 -4.288697 -26.482479 2.592509 0.000000 0.000000 0.000000 17.308655 3.429154 0.918360 61.685994 5.370780 -6.304665 -3.087144 27.738840 0.775083 0.000000 0.000000 0.000000 
0.000175 0.937718 0.000875 -0.795030 -0.910653 2.173024 4.057499 -0.117658 -0.994713 -1.117120 0.077991 1.935754 0.808487 2.201335 1.160250 0.000000 0.000000 0.000000 -3.561896 0.313324 -2.995214 0.785839 0.129976 6.266924 -1.991767 -6.462772 3.793080 0.000000 0.000000 0.000000 -1.617211 -0.105493 4.871125 3.479541 -0.176929 -25.142106 -0.612524 0.468467 31.079078 -2.972478 3.412535 -34.410374 0.000000 0.000000 0.000000 -26.686560 4.261035 -4.206196 -52.318705 -5.229416 -6.703512 -4.777960 -27.152961 2.749658 0.000000 0.000000 0.000000 17.152756 3.427585 0.995574 61.756327 5.343754 -6.256002 -3.081285 27.351350 0.772210 0.000000 0.000000 0.000000 
0.000225 0.937986 0.000532 -0.738671 -0.416400 2.120908 4.016426 -0.128777 -1.135136 -1.266924 0.094020 1.991174 0.659966 1.870264 1.088605 0.000000 0.000000 0.000000 -3.729656 0.297216 -2.800613 0.790435 0.115041 5.963631 -2.097301 -6.727943 3.934290 0.000000 0.000000 0.000000 -1.865892 -0.100465 5.210324 3.578284 -0.165792 -25.654678 -0.709481 0.351626 31.463191 -3.356613 3.635161 -34.552516 0.000000 0.000000 0.000000 -26.929281 4.208342 -4.271084 -51.972568 -5.446910 -6.596878 -5.395853 -27.772450 2.960412 0.000000 0.000000 0.000000 17.020116 3.623240 1.162151 61.392377 5.202694 -6.340851 -2.998950 27.844537 0.820257 0.000000 0.000000 0.000000 
0.000236 0.938635 0.000156 -0.727742 -0.285275 2.091414 3.918007 -0.130808 -1.166618 -1.144084 0.081720 1.829425 0.650240 1.958407 1.346077 0.000000 0.000000 0.000000 -3.717890 0.287143 -2.669668 0.759266 0.112538 5.771620 -1.942005 -6.401544 4.027272 0.000000 0.000000 0.000000 -1.857136 -0.105604 5.383808 3.407294 -0.143867 -25.308116 -0.759521 0.456372 30.977363 -3.426583 3.697866 -34.443513 0.000000 0.000000 0.000000 -26.823873 4.177664 -4.325496 -51.844422 -5.596799 -6.456232 -5.527826 -28.441471 3.054909 0.000000 0.000000 0.000000 16.994438 3.698577 1.234814 61.275549 5.289765 -6.231993 -2.799815 28.141589 0.878304 0.000000 0.000000 0.000000 
0.000228 0.938981 -0.000048 -0.693512 0.064668 2.247635 4.009321 -0.146820 -1.366261 -1.315889 0.107190 1.593028 0.472619 1.669682 1.516623 0.000000 0.000000 0.000000 -3.649662 0.280550 -2.589450 0.658516 0.113879 5.416231 -1.929049 -6.295117 3.844779 0.000000 0.000000 0.000000 -1.884640 -0.101800 5.310000 3.308388 -0.125573 -25.126208 -0.898585 0.449831 30.754952 -3.155076 3.595527 -34.212697 0.000000 0.000000 0.000000 -26.590060 3.871060 -4.186520 -51.735508 -5.602253 -6.399983 -6.200788 -29.516776 3.339652 0.000000 0.000000 0.000000 17.149890 3.653564 1.255106 60.817578 5.286953 -6.172243 -2.576523 28.963526 0.971829 0.000000 0.000000 0.000000 
0.000255 0.939568 -0.000167 -0.643770 0.080842 2.353323 3.943233 -0.141650 -1.261836 -1.276418 0.117575 0.921268 0.278734 1.518177 2.093559 0.000000 0.000000 0.000000 -3.768729 0.278179 -2.532911 0.638431 0.104018 5.040215 -1.783927 -6.026159 4.029171 0.000000 0.000000 0.000000 -1.976272 -0.095085 5.296312 3.344514 -0.129596 -25.190440 -1.029163 0.601111 30.653541 -2.956126 3.522647 -34.107376 0.000000 0.000000 0.000000 -26.392113 3.841827 -4.202645 -51.702260 -5.741186 -6.313978 -6.644662 -30.053754 3.513740 0.000000 0.000000 0.000000 17.250610 3.542800 1.232854 60.694273 5.381694 -6.107378 -2.399771 29.572824 1.055545 0.000000 0.000000 0.000000 
0.000322 0.939887 -0.000325 -0.604411 0.183964 2.471061 3.853656 -0.143477 -1.272422 -1.285155 0.128063 0.488729 0.127717 1.306100 2.308159 0.000000 0.000000 0.000000 -3.850261 0.283066 -2.594005 0.546621 0.111724 4.886220 -1.644786 -5.625297 3.801535 0.000000 0.000000 0.000000 -1.980239 -0.092288 5.212587 3.248395 -0.107008 -25.173513 -1.187127 0.486242 30.634289 -2.618415 3.346058 -34.027628 0.000000 0.000000 0.000000 -26.195103 3.716685 -4.076854 -51.661332 -5.783387 -6.296067 -6.882823 -30.683585 3.665787 0.000000 0.000000 0.000000 17.170372 3.503561 1.201871 60.905560 5.361749 -6.125092 -2.306556 30.317856 1.119880 0.000000 0.000000 0.000000 
0.000488 0.940186 -0.000616 -0.671345 0.078153 2.596352 3.967229 -0.141522 -1.216126 -1.329505 0.143919 0.013135 0.055684 1.358771 2.780425 0.000000 0.000000 0.000000 -3.913710 0.293913 -2.721188 0.516714 0.107274 4.611279 -1.582055 -5.572533 4.046758 0.000000 0.000000 0.000000 -1.916274 -0.097548 5.301106 3.303555 -0.107012 -25.416533 -1.198311 0.483144 30.677102 -2.363406 3.212340 -34.227374 0.000000 0.000000 0.000000 -26.224656 3.645448 -4.008946 -51.680139 -5.885123 -6.266172 -7.036603 -31.007917 3.759643 0.000000 0.000000 0.000000 17.334229 3.223045 1.034001 60.816573 5.424416 -6.095490 -2.275267 30.842080 1.157189 0.000000 0.000000 0.000000 
0.000740 0.940479 -0.000903 -0.778336 -0.300444 2.789775 3.949998 -0.146122 -1.319820 -1.264017 0.140710 -0.118196 0.140767 1.559045 2.884945 0.000000 0.000000 0.000000 -3.856118 0.314740 -2.972147 0.476689 0.106193 4.368713 -1.413660 -5.271043 4.220885 0.000000 0.000000 0.000000 -1.833965 -0.100657 5.281773 3.343761 -0.115237 -25.529127 -1.183071 0.478834 30.656244 -1.958213 2.976275 -34.303702 0.000000 0.000000 0.000000 -25.807734 3.601643 -3.833770 -52.063000 -6.045747 -6.255074 -6.678693 -30.938500 3.676758 0.000000 0.000000 0.000000 17.313619 3.041112 0.873098 60.922149 5.500351 -6.054339 -2.311290 31.369132 1.162889 0.000000 0.000000 0.000000 
0.000981 0.940805 -0.000972 -0.875025 -0.657722 2.899292 4.070435 -0.139865 -1.227267 -1.368397 0.160078 -0.443451 0.269127 1.923270 3.184668 0.000000 0.000000 0.000000 -3.807113 0.328059 -3.121994 0.437695 0.097784 3.944030 -1.296584 -5.176786 4.634758 0.000000 0.000000 0.000000 -1.617637 -0.111754 5.219872 3.285872 -0.104155 -25.569892 -1.148673 0.449406 30.775425 -1.589464 2.754781 -34.380385 0.000000 0.000000 0.000000 -25.684005 3.413064 -3.596395 -52.306986 -6.047544 -6.314895 -6.161794 -30.757178 3.536068 0.000000 0.000000 0.000000 17.471517 2.862218 0.711578 60.896330 5.453279 -6.093679 -2.450697 31.848370 1.140401 0.000000 0.000000 0.000000 
0.001213 0.941136 -0.000710 -0.862655 -1.117297 3.022675 4.229196 -0.137110 -1.207234 -1.631089 0.192557 -0.605435 0.449854 2.338851 3.379572 0.000000 0.000000 0.000000 -3.822443 0.344476 -3.304053 0.379858 0.097692 3.682542 -1.151042 -4.926121 4.764035 0.000000 0.000000 0.000000 -1.666561 -0.105565 5.163258 3.420522 -0.139041 -25.564195 -1.181438 0.406371 30.727822 -1.037489 2.421509 -34.143436 0.000000 0.000000 0.000000 -25.410394 3.303470 -3.369383 -52.767709 -6.019445 -6.391276 -5.414692 -30.485629 3.330873 0.000000 0.000000 0.000000 17.285848 2.863811 0.630491 61.088624 5.299318 -6.174114 -2.394799 32.338790 1.154202 0.000000 0.000000 0.000000 
0.001364 0.941243 -0.000130 -0.873616 -1.476167 3.043558 4.175235 -0.123325 -1.012232 -1.622912 0.196912 -0.819354 0.466532 2.422831 3.554533 0.000000 0.000000 0.000000 -3.790825 0.335452 -3.134743 0.327996 0.087559 3.204337 -1.002227 -4.712701 5.014712 0.000000 0.000000 0.000000 -1.571818 -0.107374 5.035159 3.462634 -0.152379 -25.545012 -1.184457 0.208085 30.815286 -0.745719 2.203633 -34.081429 0.000000 0.000000 0.000000 -25.282892 3.345351 -3.219098 -53.079288 -5.828094 -6.552460 -4.811186 -30.095950 3.162207 0.000000 0.000000 0.000000 17.157166 2.888433 0.544119 61.203973 5.010817 -6.346682 -2.378224 32.668138 1.143674 0.000000 0.000000 0.000000 
0.001492 0.940991 0.000632 -0.867956 -1.819709 3.199252 4.269372 -0.120333 -0.974554 -1.790350 0.218550 -0.981411 0.730486 2.936739 3.578690 0.000000 0.000000 0.000000 -3.843125 0.342301 -3.176303 0.340751 0.076166 2.926511 -0.989678 -4.723569 5.058560 0.000000 0.000000 0.000000 -1.507121 -0.103679 4.794393 3.525574 -0.159982 -25.712327 -1.274641 0.219289 31.050551 -0.212902 1.892506 -33.847330 0.000000 0.000000 0.000000 -25.103937 3.280246 -3.069388 -53.351970 -5.728833 -6.662407 -3.867700 -29.584956 2.876876 0.000000 0.000000 0.000000 17.052887 2.864806 0.488980 61.411420 4.681991 -6.558837 -2.221979 32.821665 1.183190 0.000000 0.000000 0.000000 
